<svg xmlns="http://www.w3.org/2000/svg" viewBox="0 0 33.86 65.5"><defs><style>.cls-1,.cls-2{fill:none;stroke:#fff;stroke-linecap:round;stroke-linejoin:round;}.cls-1{stroke-width:3px;}.cls-2{stroke-width:2.5px;}</style></defs><title>자산 2profile</title><g id="레이어_2" data-name="레이어 2"><g id="icon"><path class="cls-1" d="M25.28-763h5.54c0-3,0-6.12,2.46-8.58,3-3,7.08-7.89,7.08-13.28A15.16,15.16,0,0,0,25.26-800h-.75a14.83,14.83,0,0,0-15,14.84c0,5.38,4.1,10.69,7.12,13.69C19.08-769,19.11-766,19.11-763h6.17Z" transform="translate(-8 817)"/><line class="cls-1" x1="10.54" y1="59" x2="23.54" y2="59"/><line class="cls-1" x1="10.54" y1="64" x2="23.54" y2="64"/><line class="cls-1" x1="17.04" y1="10.5" x2="17.04" y2="1.5"/><line class="cls-2" x1="6.58" y1="12.07" x2="2.23" y2="5.52"/><line class="cls-2" x1="26.58" y1="12.07" x2="30.92" y2="5.52"/></g></g></svg>