<svg xmlns="http://www.w3.org/2000/svg" viewBox="0 0 31.13 31"><defs><style>.cls-1{fill:#f15a24;}</style></defs><title>자산 3profile</title><g id="레이어_2" data-name="레이어 2"><g id="Layer_1" data-name="Layer 1"><path class="cls-1" d="M-215.36-95.09V-100h-18.15v4.91H-240V-75h4.32v6H-213v-6h4.13v-20.1Zm-16.32-3.08h14.49V-90h-14.49Zm16.47,27h-18.45v-10h18.45Zm3.45-18.15A1.25,1.25,0,0,1-213-90.61a1.26,1.26,0,0,1,1.26-1.26,1.26,1.26,0,0,1,1.25,1.26A1.25,1.25,0,0,1-211.76-89.35Z" transform="translate(240 100)"/><rect class="cls-1" x="8.65" y="21.27" width="13.84" height="1.5"/><rect class="cls-1" x="8.65" y="24.82" width="13.84" height="1.5"/></g></g></svg>