<svg xmlns="http://www.w3.org/2000/svg" viewBox="0 0 35.45 33.15"><defs><style>.cls-1{fill:#f15a24;}</style></defs><title>자산 1profile</title><g id="레이어_2" data-name="레이어 2"><g id="Layer_1" data-name="Layer 1"><path class="cls-1" d="M-210.09-86.79h-5.4a22.62,22.62,0,0,0,.75-7c-.39-4.3-4-6.22-7.32-6.22-3.54,0-7.34,2.13-7.75,6.21a18.79,18.79,0,0,0,1.11,7h-5.76L-240-66.85h35.45Zm-12.19-7.38a2.53,2.53,0,0,1,2.53,2.53,2.53,2.53,0,0,1-2.53,2.53,2.52,2.52,0,0,1-2.52-2.53A2.52,2.52,0,0,1-222.28-94.17Zm-10.32,9.83h4.74a84.84,84.84,0,0,0,5.28,11l1.15,2,1-2a77.15,77.15,0,0,0,4.29-11h4.19l4.18,15h-29Z" transform="translate(240 100)"/></g></g></svg>